<svg preserveAspectRatio="none" width="100%" height="100%" overflow="visible" style="display: block;" viewBox="0 0 35.1938 66.9508" fill="none" xmlns="http://www.w3.org/2000/svg">
<g id="PLAYER BAR [Vectorized]" clip-path="url(#clip0_0_4)">
<path id="Vector" d="M9.69075 4.05702L9.89366 4.05884C13.0981 4.02155 16.3587 4.05207 19.5667 4.05245L23.6736 4.05313C24.3722 4.05334 25.1656 4.03643 25.8556 4.05812L26.879 4.05911C28.8712 4.04901 30.8634 4.04959 32.8555 4.06083C32.8569 4.69762 32.841 5.41958 32.8622 6.04898C32.8594 6.22986 32.8607 6.87761 32.8333 7.02059L32.8546 7.03499L32.9009 7.01688C33.2532 7.01038 33.6056 7.00756 33.958 7.00852C34.1369 7.00574 34.945 7.03272 35.056 6.99821C35.1846 6.84256 35.1131 6.4081 35.1938 6.16483V59.2415V66.9508H35.1464H25.7233H10.0464L9.92707 66.8408C9.85978 66.7112 9.89373 63.2819 9.89799 62.8953C9.63212 62.8798 9.21563 62.8939 8.93786 62.8939L2.95615 62.8946L2.95677 59.9388C2.95189 59.5982 2.95647 59.2425 2.95646 58.9005C2.61488 58.9019 2.26657 58.9071 1.92565 58.9036L0 58.9133V7.00674L1.94747 7.00856L2.9554 7.01296L2.95756 6.04719C2.95418 5.38287 2.95451 4.71859 2.95853 4.05427C4.87569 4.05365 7.04771 4.0001 8.93941 4.05661L9.69075 4.05702Z" fill="var(--fill-0, #FFFEFE)"/>
<path id="Vector_2" d="M26.879 4.05912C28.8712 4.04901 30.8634 4.0496 32.8555 4.06084C32.8569 4.69762 32.841 5.41958 32.8622 6.04898C32.8594 6.22986 32.8608 6.87762 32.8333 7.02059L32.8546 7.03499L32.9009 7.01688C33.2532 7.01038 33.6056 7.00756 33.958 7.00853C34.1369 7.00574 34.945 7.03272 35.056 6.99822C35.1846 6.84256 35.1131 6.4081 35.1939 6.16484V59.2415V66.9508H35.1464H25.7233C25.9173 66.7896 26.6136 66.8394 26.8701 66.8731L26.8766 62.8935L26.879 4.05912Z" fill="var(--fill-0, #030202)"/>
<path id="Vector_3" d="M33.958 7.00852C34.1369 7.00574 34.945 7.03272 35.056 6.99821C35.1846 6.84256 35.1131 6.4081 35.1939 6.16483V59.2415V66.9508H35.1464H25.7233C25.9173 66.7896 26.6136 66.8394 26.8701 66.8731L26.8766 62.8935C28.8356 62.9255 30.8885 62.898 32.8552 62.8929L32.8585 59.9399L32.8589 58.8744C32.8367 57.147 32.8579 55.3712 32.8579 53.6407V43.2685L32.8546 7.03499L32.9009 7.01687C33.2532 7.01038 33.6056 7.00756 33.958 7.00852Z" fill="var(--fill-0, #030202)"/>
<path id="Vector_4" d="M32.8585 59.9399C33.14 59.9381 34.9911 59.8917 35.1031 59.9835C35.1543 60.2842 35.1306 61.4105 35.1306 61.7834L35.131 65.1519C35.1316 65.6843 35.1107 66.4346 35.1464 66.9508H25.7233C25.9173 66.7896 26.6136 66.8394 26.8701 66.8731L26.8766 62.8935C28.8356 62.9255 30.8885 62.898 32.8552 62.8928L32.8585 59.9399Z" fill="var(--fill-0, #FFFEFE)"/>
<path id="Vector_5" d="M32.9009 7.01688L32.9008 58.8902L33.8899 58.9074C34.1333 58.9067 34.9079 58.8871 35.0949 58.9401C35.1825 59.0971 35.1444 59.1202 35.1939 59.2415V66.9508H35.1464C35.1107 66.4346 35.1316 65.6843 35.131 65.1519L35.1306 61.7834C35.1306 61.4105 35.1543 60.2842 35.1031 59.9835C34.9911 59.8917 33.14 59.9381 32.8585 59.9399L32.8589 58.8744C32.8367 57.147 32.8579 55.3712 32.8579 53.6407V43.2685L32.8546 7.03499L32.9009 7.01688Z" fill="var(--fill-0, #242323)"/>
<path id="Vector_6" d="M29.9001 7.01413C30.7347 6.99533 32.0198 6.97089 32.8333 7.02059L32.8546 7.03499L32.8579 43.2685V53.6407C32.8579 55.3712 32.8367 57.147 32.8589 58.8744L32.8585 59.9399C31.8923 59.9206 30.8713 59.9357 29.9003 59.9361L29.9001 58.9322L29.9001 7.01413Z" fill="var(--fill-0, #FFFEFE)"/>
<path id="Vector_7" d="M32.8589 58.8744L32.8585 59.9399C31.8923 59.9206 30.8713 59.9357 29.9003 59.9361L29.9001 58.9322C30.6425 58.8256 32.0647 58.9961 32.8589 58.8744Z" fill="var(--fill-0, #B9B8B8)"/>
<path id="Vector_8" d="M28.8702 7.00811C29.2064 7.00856 29.566 7.00244 29.9001 7.01412L29.9001 58.9322L29.9003 59.9361L28.8768 59.9354L28.8702 7.00811Z" fill="var(--fill-0, #242323)"/>
<path id="Vector_9" d="M32.8622 6.04898C32.8594 6.22986 32.8607 6.87761 32.8333 7.02059C32.0197 6.97089 30.7346 6.99533 29.9001 7.01413L29.9005 6.0565C30.8531 6.03069 31.9018 6.0508 32.8622 6.04898Z" fill="var(--fill-0, #6E6D6D)"/>
<path id="Vector_10" d="M0 7.00674L1.94747 7.00856L2.9554 7.01296C3.87108 7.00787 5.00258 6.97505 5.90889 7.01334L5.91597 7.03671L5.91617 58.9308L5.9138 59.9302C5.10173 59.9777 3.80939 59.9388 2.95677 59.9388C2.95189 59.5982 2.95647 59.2425 2.95646 58.9005C2.61488 58.9019 2.26657 58.9071 1.92565 58.9036L0 58.9133V7.00674Z" fill="var(--fill-0, #FFFEFE)"/>
<path id="Vector_11" d="M0 7.00674L1.94747 7.00856L2.9554 7.01296L2.95646 58.9005C2.61488 58.9019 2.26657 58.9071 1.92565 58.9036L0 58.9133V7.00674Z" fill="var(--fill-0, #030202)"/>
<path id="Vector_12" d="M2.95647 58.9005C3.58115 58.9002 4.20581 58.9036 4.83043 58.9115C5.11985 58.9136 5.64587 58.9002 5.91618 58.9308L5.91381 59.9302C5.10174 59.9777 3.8094 59.9388 2.95677 59.9388C2.95189 59.5982 2.95648 59.2425 2.95647 58.9005Z" fill="var(--fill-0, #B9B8B8)"/>
<path id="Vector_13" d="M2.95855 4.05427C4.8757 4.05365 7.04772 4.0001 8.93942 4.05661L8.93788 62.8939L2.95616 62.8946L2.95678 59.9388C3.8094 59.9388 5.10175 59.9777 5.91382 59.9302L5.91619 58.9308L5.91598 7.03671L5.9089 7.01334C5.00259 6.97505 3.8711 7.00787 2.95541 7.01296L2.95758 6.04719C2.9542 5.38287 2.95452 4.71859 2.95855 4.05427Z" fill="var(--fill-0, #030202)"/>
<path id="Vector_14" d="M5.91598 7.03671C6.26115 6.98625 6.58961 7.00306 6.93829 7.0068L6.942 59.9313C6.82978 59.9309 5.94461 59.9137 5.91382 59.9302L5.91619 58.9308L5.91598 7.03671Z" fill="var(--fill-0, #242323)"/>
<path id="Vector_15" d="M2.95756 6.04719C3.90122 6.0731 4.99605 6.0077 5.91198 6.06125C5.9139 6.3317 5.92954 6.75478 5.90889 7.01334C5.00258 6.97505 3.87108 7.00787 2.9554 7.01296L2.95756 6.04719Z" fill="var(--fill-0, #6E6D6D)"/>
<path id="Vector_16" d="M10.0823 62.8939L10.5651 62.9008C13.6146 62.865 16.7212 62.8949 19.7746 62.8953L23.3267 62.8956C23.879 62.8956 24.6108 62.8746 25.1436 62.8997L25.8435 62.8935H26.8766L26.8701 66.8731C26.6135 66.8394 25.9173 66.7896 25.7233 66.9508H10.0464L9.92705 66.8408C9.85976 66.7113 9.89371 63.2819 9.89798 62.8953L10.0823 62.8939Z" fill="var(--fill-0, #030202)"/>
<path id="Vector_17" d="M25.8435 62.8935H26.8766L26.8701 66.8731C26.6136 66.8394 25.9173 66.7896 25.7233 66.9508H10.0464L9.92707 66.8408L10.4806 66.8363L15.992 66.8394L19.7682 66.8391C21.6531 66.835 23.5773 66.8614 25.4559 66.8363C25.5935 66.8415 25.6893 66.8498 25.8249 66.8253C25.864 66.5628 25.8487 65.7699 25.849 65.4709C25.8517 64.6116 25.8499 63.7528 25.8435 62.8935Z" fill="var(--fill-0, #484748)"/>
<path id="Vector_18" d="M25.8556 4.05812L26.879 4.05911L26.8766 62.8935H25.8435C25.879 61.1438 25.8498 59.3006 25.8498 57.5413L25.8499 47.4704L25.8502 17.1145L25.8498 8.68913C25.8493 7.17607 25.8218 5.56344 25.8556 4.05812Z" fill="var(--fill-0, #B9B8B8)"/>
<path id="Vector_19" d="M9.69077 4.05702L9.89369 4.05884L9.89382 50.3537C9.89386 51.2143 9.85021 62.6976 9.92287 62.853C9.97559 62.8671 10.0288 62.8829 10.0823 62.8939L9.89802 62.8953C9.63214 62.8798 9.21565 62.8939 8.93788 62.8939L8.93943 4.05661L9.69077 4.05702Z" fill="var(--fill-0, #B9B8B8)"/>
<path id="Vector_20" d="M0 0H35.1072H35.1938V6.16483C35.1131 6.4081 35.1846 6.84256 35.056 6.99821C34.945 7.03272 34.1369 7.00574 33.958 7.00852C33.6056 7.00756 33.2532 7.01038 32.9009 7.01688L32.8546 7.03499L32.8333 7.02059C32.8607 6.87761 32.8594 6.22986 32.8622 6.04898C32.841 5.41958 32.8569 4.69762 32.8555 4.06083C30.8634 4.0496 28.8712 4.04901 26.879 4.05912L25.8556 4.05812C25.1656 4.03643 24.3722 4.05334 23.6736 4.05314L19.5667 4.05245C16.3587 4.05207 13.0981 4.02155 9.89366 4.05884L9.69075 4.05702L8.93941 4.05661C7.04771 4.0001 4.87569 4.05365 2.95853 4.05427C2.95451 4.71859 2.95418 5.38287 2.95756 6.04719L2.9554 7.01296L1.94747 7.00856L0 7.00674V6.05451V0Z" fill="var(--fill-0, #FFFEFE)"/>
<path id="Vector_21" d="M8.93239 3.0225C8.93713 2.32269 8.88674 0.735039 8.96188 0.0947245C8.98363 0.310013 8.99054 0.806963 8.97511 1.03339L9.90018 1.0283L10.931 1.03119L25.8485 1.02979L25.8502 3.02385L26.8786 3.02073C28.2946 3.0292 29.7106 3.03044 31.1266 3.02445C31.421 3.0242 32.6571 3.00654 32.8563 3.04766L32.8555 4.06083C30.8634 4.04959 28.8712 4.04901 26.879 4.05911L25.8556 4.05812C25.1657 4.03643 24.3722 4.05334 23.6736 4.05313L19.5668 4.05245C16.3587 4.05207 13.0981 4.02155 9.89369 4.05884L9.69077 4.05702L8.93943 4.05661C7.04773 4.0001 4.87571 4.05365 2.95855 4.05427L2.95721 3.04521C3.14456 3.00913 4.51463 3.02466 4.76319 3.02478L8.93239 3.0225Z" fill="var(--fill-0, #949394)"/>
<path id="Vector_22" d="M10.931 1.03119L25.8485 1.02979L25.8502 3.02385L9.88961 3.02433C9.90161 2.36013 9.88205 1.6994 9.90016 1.0283L10.931 1.03119Z" fill="var(--fill-0, #030202)"/>
<path id="Vector_23" d="M32.8563 3.04766L32.8555 4.06083C30.8633 4.04959 28.8711 4.04901 26.879 4.05911C26.8682 3.73794 26.8772 3.37436 26.8778 3.04997C28.3778 3.09568 29.9003 3.0469 31.4026 3.06501C31.8332 3.0702 32.4418 3.09351 32.8563 3.04766Z" fill="var(--fill-0, #6E6D6D)"/>
<path id="Vector_24" d="M2.95855 4.05427L2.95721 3.04521C3.37049 3.09603 4.58388 3.06604 5.05677 3.06571C6.35516 3.07209 7.65355 3.0664 8.95184 3.04868C8.9371 3.39486 8.93706 3.71123 8.93943 4.05661C7.04773 4.0001 4.87571 4.05365 2.95855 4.05427Z" fill="var(--fill-0, #6E6D6D)"/>
<path id="Vector_25" d="M8.93239 3.0225C8.93713 2.32269 8.88674 0.735039 8.96188 0.0947245C8.98363 0.310013 8.99054 0.806963 8.97511 1.03339L9.90018 1.0283C9.88207 1.6994 9.90163 2.36012 9.88963 3.02432L25.8502 3.02385L26.8786 3.02073C28.2946 3.0292 29.7106 3.03044 31.1266 3.02445C31.421 3.0242 32.6571 3.00654 32.8563 3.04766C32.4418 3.09351 31.8332 3.0702 31.4027 3.06501C29.9003 3.0469 28.3779 3.09568 26.8779 3.04997C26.8773 3.37436 26.8683 3.73794 26.879 4.05911L25.8556 4.05812C25.8778 3.7789 25.8416 3.41177 25.8681 3.0633L9.88482 3.06653C9.88833 3.32746 9.9427 3.73811 9.86162 3.97828C9.84526 4.0267 9.75583 4.03739 9.69077 4.05702L8.93943 4.05661C8.93706 3.71123 8.9371 3.39486 8.95184 3.04868C7.65355 3.0664 6.35516 3.07209 5.05677 3.06571C4.58388 3.06604 3.37049 3.09603 2.95721 3.04521C3.14456 3.00913 4.51463 3.02466 4.76319 3.02478L8.93239 3.0225Z" fill="var(--fill-0, #878686)"/>
<path id="Vector_26" d="M8.97507 1.03339L9.90015 1.0283C9.88203 1.6994 9.90159 2.36013 9.88959 3.02433C9.58258 3.0295 9.26195 3.0246 8.95373 3.02458C8.98466 2.37555 8.94947 1.69298 8.97507 1.03339Z" fill="var(--fill-0, #484748)"/>
<path id="Vector_27" d="M10.0238 0.110624C10.4699 0.0695793 11.2985 0.0947786 11.776 0.0953471L15.0317 0.0980265L25.8533 0.0945312C25.8467 0.406237 25.8451 0.718029 25.8485 1.02979L10.931 1.03119L9.90017 1.0283C9.90041 0.782079 9.88113 0.299488 9.92103 0.086405L10.0238 0.110624Z" fill="var(--fill-0, #484748)"/>
<path id="Vector_28" d="M9.92103 0.086405L10.0238 0.110624C10.1489 0.182818 10.7335 0.141297 10.9265 0.152466C10.9224 0.305311 10.8982 0.92635 10.931 1.03119L9.90017 1.0283C9.90041 0.782079 9.88113 0.299488 9.92103 0.086405Z" fill="var(--fill-0, #242323)"/>
<path id="Vector_29" d="M0 6.05451L2.95756 6.04719L2.9554 7.01296L1.94747 7.00856L0 7.00674V6.05451Z" fill="var(--fill-0, #949394)"/>
<path id="Vector_30" d="M35.1072 0H35.1939V6.16483C35.1131 6.4081 35.1846 6.84256 35.056 6.99821C34.945 7.03272 34.1369 7.00574 33.958 7.00852C33.6056 7.00756 33.2532 7.01038 32.9009 7.01688L32.8546 7.03499L32.8333 7.02059C32.8608 6.87761 32.8594 6.22986 32.8622 6.04898L35.1093 6.05324L35.1072 0Z" fill="var(--fill-0, #949394)"/>
<path id="Vector_31" d="M25.8485 1.02979C26.1708 1.03227 26.5565 1.02612 26.8741 1.0387C26.8751 1.6914 26.8662 2.37029 26.8786 3.02073L25.8502 3.02385L25.8485 1.02979Z" fill="var(--fill-0, #484748)"/>
<path id="Vector_32" d="M25.8533 0.0945315L26.8763 0.0965844L26.8741 1.0387C26.5565 1.02612 26.1708 1.03227 25.8485 1.02979C25.8451 0.71803 25.8467 0.406238 25.8533 0.0945315Z" fill="var(--fill-0, #6E6D6D)"/>
<path id="Vector_33" d="M8.96185 0.0947243C9.03615 0.0806028 9.74928 0.0965906 9.92102 0.086405C9.88112 0.299488 9.9004 0.782079 9.90016 1.0283L8.97508 1.03339C8.99051 0.806963 8.9836 0.310013 8.96185 0.0947243Z" fill="var(--fill-0, #6E6D6D)"/>
<path id="Vector_34" d="M1.92565 58.9036C2.26657 58.9071 2.61488 58.9019 2.95646 58.9005C2.95647 59.2425 2.95189 59.5982 2.95677 59.9388L2.95615 62.8946L8.93786 62.8939C9.21563 62.8939 9.63212 62.8798 9.89799 62.8953C9.89373 63.2819 9.85978 66.7112 9.92707 66.8408L10.0464 66.9508H0V59.9378V58.9133L1.92565 58.9036Z" fill="var(--fill-0, #FFFEFE)"/>
<path id="Vector_35" d="M8.93788 62.8939C9.21565 62.8939 9.63214 62.8798 9.89802 62.8953C9.89375 63.2819 9.8598 66.7112 9.92709 66.8408C9.80725 66.8635 9.14537 66.8607 8.94813 66.8748L8.93788 62.8939Z" fill="var(--fill-0, #484748)"/>
<path id="Vector_36" d="M0 58.9133L1.92565 58.9036C1.91893 59.2136 1.90038 59.5876 1.90576 59.8921C1.6797 59.8907 0.982692 59.866 0.804014 59.9323C0.581403 59.9461 0.232783 59.9364 0 59.9378V58.9133Z" fill="var(--fill-0, #1C1B1C)"/>
<path id="Vector_37" d="M1.92569 58.9036C2.26661 58.9071 2.61491 58.9019 2.95649 58.9005C2.9565 59.2425 2.95192 59.5982 2.9568 59.9388C2.23921 59.9406 1.52162 59.9381 0.804046 59.9323C0.982724 59.866 1.67973 59.8907 1.90579 59.8921C1.90041 59.5876 1.91896 59.2136 1.92569 58.9036Z" fill="var(--fill-0, #242323)"/>
</g>
<defs>
<clipPath id="clip0_0_4">
<rect width="35.1938" height="66.9508" fill="white"/>
</clipPath>
</defs>
</svg>
